<?xml version="1.0" encoding="utf-8"?>
<svg version="1.1" xmlns:xlink="http://www.w3.org/1999/xlink" width="48px" height="22px" xmlns="http://www.w3.org/2000/svg">
  <defs>
    <mask fill="white" id="clip2">
      <path d="M 47.7222222222222 10.2704811443433  C 47.9074074074074 10.4612050281751  48 10.6805374945817  48 10.9284785435631  C 48 11.1954919809276  47.9074074074074 11.4243606415258  47.7222222222222 11.6150845253576  L 37.0555555555556 21.742522756827  C 36.7592592592593 22.0095361941916  36.4351851851852 22.0667533593411  36.0833333333333 21.9141742522757  C 35.7314814814815 21.742522756827  35.5555555555556 21.4659731252709  35.5555555555556 21.0845253576073  L 35.5555555555556 14.6762028608583  L 0.888888888888889 14.6762028608583  C 0.62962962962963 14.6762028608583  0.416666666666667 14.5903771131339  0.25 14.4187256176853  C 0.0833333333333333 14.2470741222367  0 14.0277416558301  0 13.7607282184655  L 0 8.26788036410923  C 0 8.00086692674469  0.0833333333333333 7.7815344603381  0.25 7.60988296488947  C 0.416666666666667 7.43823146944083  0.62962962962963 7.35240572171652  0.888888888888889 7.35240572171652  L 35.5555555555556 7.35240572171652  L 35.5555555555556 0.944083224967491  C 35.5555555555556 0.543563068920677  35.7314814814815 0.267013437364541  36.0833333333333 0.11443433029909  C 36.4351851851852 -0.0381447767663659  36.7592592592593 0.00953619419158902  37.0555555555556 0.257477243172952  L 47.7222222222222 10.2704811443433  Z " fill-rule="evenodd" />
    </mask>
  </defs>
  <g transform="matrix(1 0 0 1 -828 -430 )">
    <path d="M 47.7222222222222 10.2704811443433  C 47.9074074074074 10.4612050281751  48 10.6805374945817  48 10.9284785435631  C 48 11.1954919809276  47.9074074074074 11.4243606415258  47.7222222222222 11.6150845253576  L 37.0555555555556 21.742522756827  C 36.7592592592593 22.0095361941916  36.4351851851852 22.0667533593411  36.0833333333333 21.9141742522757  C 35.7314814814815 21.742522756827  35.5555555555556 21.4659731252709  35.5555555555556 21.0845253576073  L 35.5555555555556 14.6762028608583  L 0.888888888888889 14.6762028608583  C 0.62962962962963 14.6762028608583  0.416666666666667 14.5903771131339  0.25 14.4187256176853  C 0.0833333333333333 14.2470741222367  0 14.0277416558301  0 13.7607282184655  L 0 8.26788036410923  C 0 8.00086692674469  0.0833333333333333 7.7815344603381  0.25 7.60988296488947  C 0.416666666666667 7.43823146944083  0.62962962962963 7.35240572171652  0.888888888888889 7.35240572171652  L 35.5555555555556 7.35240572171652  L 35.5555555555556 0.944083224967491  C 35.5555555555556 0.543563068920677  35.7314814814815 0.267013437364541  36.0833333333333 0.11443433029909  C 36.4351851851852 -0.0381447767663659  36.7592592592593 0.00953619419158902  37.0555555555556 0.257477243172952  L 47.7222222222222 10.2704811443433  Z " fill-rule="nonzero" fill="#e6e6e6" stroke="none" fill-opacity="0" transform="matrix(1 0 0 1 828 430 )" />
    <path d="M 47.7222222222222 10.2704811443433  C 47.9074074074074 10.4612050281751  48 10.6805374945817  48 10.9284785435631  C 48 11.1954919809276  47.9074074074074 11.4243606415258  47.7222222222222 11.6150845253576  L 37.0555555555556 21.742522756827  C 36.7592592592593 22.0095361941916  36.4351851851852 22.0667533593411  36.0833333333333 21.9141742522757  C 35.7314814814815 21.742522756827  35.5555555555556 21.4659731252709  35.5555555555556 21.0845253576073  L 35.5555555555556 14.6762028608583  L 0.888888888888889 14.6762028608583  C 0.62962962962963 14.6762028608583  0.416666666666667 14.5903771131339  0.25 14.4187256176853  C 0.0833333333333333 14.2470741222367  0 14.0277416558301  0 13.7607282184655  L 0 8.26788036410923  C 0 8.00086692674469  0.0833333333333333 7.7815344603381  0.25 7.60988296488947  C 0.416666666666667 7.43823146944083  0.62962962962963 7.35240572171652  0.888888888888889 7.35240572171652  L 35.5555555555556 7.35240572171652  L 35.5555555555556 0.944083224967491  C 35.5555555555556 0.543563068920677  35.7314814814815 0.267013437364541  36.0833333333333 0.11443433029909  C 36.4351851851852 -0.0381447767663659  36.7592592592593 0.00953619419158902  37.0555555555556 0.257477243172952  L 47.7222222222222 10.2704811443433  Z " stroke-width="2" stroke-dasharray="3,1" stroke="#e6e6e6" fill="none" transform="matrix(1 0 0 1 828 430 )" mask="url(#clip2)" />
  </g>
</svg>