<?xml version="1.0" encoding="utf-8"?>
<svg version="1.1" xmlns:xlink="http://www.w3.org/1999/xlink" width="156px" height="28px" xmlns="http://www.w3.org/2000/svg">
  <g transform="matrix(1 0 0 1 -889 -427 )">
    <path d="M 890 431  A 3 3 0 0 1 893 428 L 1041 428  A 3 3 0 0 1 1044 431 L 1044 451  A 3 3 0 0 1 1041 454 L 893 454  A 3 3 0 0 1 890 451 L 890 431  Z " fill-rule="nonzero" fill="#ffffff" stroke="none" />
    <path d="M 889.5 431  A 3.5 3.5 0 0 1 893 427.5 L 1041 427.5  A 3.5 3.5 0 0 1 1044.5 431 L 1044.5 451  A 3.5 3.5 0 0 1 1041 454.5 L 893 454.5  A 3.5 3.5 0 0 1 889.5 451 L 889.5 431  Z " stroke-width="1" stroke-dasharray="9,4" stroke="#d9d9d9" fill="none" stroke-dashoffset="0.5" />
  </g>
</svg>