<?xml version="1.0" encoding="utf-8"?>
<svg version="1.1" xmlns:xlink="http://www.w3.org/1999/xlink" width="1171px" height="32px" xmlns="http://www.w3.org/2000/svg">
  <g transform="matrix(1 0 0 1 -256 -285 )">
    <path d="M 257 289  A 3 3 0 0 1 260 286 L 1423 286  A 3 3 0 0 1 1426 289 L 1426 313  A 3 3 0 0 1 1423 316 L 260 316  A 3 3 0 0 1 257 313 L 257 289  Z " fill-rule="nonzero" fill="#ffffff" stroke="none" />
    <path d="M 256.5 289  A 3.5 3.5 0 0 1 260 285.5 L 1423 285.5  A 3.5 3.5 0 0 1 1426.5 289 L 1426.5 313  A 3.5 3.5 0 0 1 1423 316.5 L 260 316.5  A 3.5 3.5 0 0 1 256.5 313 L 256.5 289  Z " stroke-width="1" stroke-dasharray="9,4" stroke="#d9d9d9" fill="none" stroke-dashoffset="0.5" />
  </g>
</svg>