<?xml version="1.0" encoding="utf-8"?>
<svg version="1.1" xmlns:xlink="http://www.w3.org/1999/xlink" width="174px" height="28px" xmlns="http://www.w3.org/2000/svg">
  <g transform="matrix(1 0 0 1 -277 -338 )">
    <path d="M 278 342  A 3 3 0 0 1 281 339 L 447 339  A 3 3 0 0 1 450 342 L 450 362  A 3 3 0 0 1 447 365 L 281 365  A 3 3 0 0 1 278 362 L 278 342  Z " fill-rule="nonzero" fill="#ffffff" stroke="none" />
    <path d="M 277.5 342  A 3.5 3.5 0 0 1 281 338.5 L 447 338.5  A 3.5 3.5 0 0 1 450.5 342 L 450.5 362  A 3.5 3.5 0 0 1 447 365.5 L 281 365.5  A 3.5 3.5 0 0 1 277.5 362 L 277.5 342  Z " stroke-width="1" stroke-dasharray="9,4" stroke="#d9d9d9" fill="none" stroke-dashoffset="0.5" />
  </g>
</svg>