<?xml version="1.0" encoding="utf-8"?>
<svg version="1.1" xmlns:xlink="http://www.w3.org/1999/xlink" width="94px" height="28px" xmlns="http://www.w3.org/2000/svg">
  <defs>
    <mask fill="white" id="clip3">
      <path d="M 0 24  L 0 4  C 0 1.75999999999999  0.810980392156859 0  1.84313725490196 0  L 92.156862745098 0  C 93.1890196078432 0  94 1.75999999999999  94 4  L 94 24  C 94 26.24  93.1890196078432 28  92.156862745098 28  L 30.8725490196078 28  L 1.84313725490196 28  C 0.810980392156859 28  0 26.24  0 24  Z " fill-rule="evenodd" />
    </mask>
  </defs>
  <g transform="matrix(1 0 0 1 -684 -431 )">
    <path d="M 0 24  L 0 4  C 0 1.75999999999999  0.810980392156859 0  1.84313725490196 0  L 92.156862745098 0  C 93.1890196078432 0  94 1.75999999999999  94 4  L 94 24  C 94 26.24  93.1890196078432 28  92.156862745098 28  L 30.8725490196078 28  L 1.84313725490196 28  C 0.810980392156859 28  0 26.24  0 24  Z " fill-rule="nonzero" fill="#ffffff" stroke="none" transform="matrix(1 0 0 1 684 431 )" />
    <path d="M 0 24  L 0 4  C 0 1.75999999999999  0.810980392156859 0  1.84313725490196 0  L 92.156862745098 0  C 93.1890196078432 0  94 1.75999999999999  94 4  L 94 24  C 94 26.24  93.1890196078432 28  92.156862745098 28  L 30.8725490196078 28  L 1.84313725490196 28  C 0.810980392156859 28  0 26.24  0 24  Z " stroke-width="2" stroke="#d9d9d9" fill="none" transform="matrix(1 0 0 1 684 431 )" mask="url(#clip3)" />
  </g>
</svg>