<?xml version="1.0" encoding="utf-8"?>
<svg version="1.1" xmlns:xlink="http://www.w3.org/1999/xlink" width="175px" height="205px" xmlns="http://www.w3.org/2000/svg">
  <defs>
    <mask fill="white" id="clip15">
      <path d="M 1.76530677392581 73.3950617283951  L 85.5615143969865 0.535160711372142  L 156.508970184511 6.1097514548321  L 173.731884057971 73.3950617283951  L 161.536742641895 150.491651710448  L 58.746727957607 204.007722847664  L 1.76530677392581 73.3950617283951  Z " fill-rule="evenodd" />
    </mask>
  </defs>
  <g transform="matrix(1 0 0 1 -435 -358 )">
    <path d="M 1.76530677392581 73.3950617283951  L 85.5615143969865 0.535160711372142  L 156.508970184511 6.1097514548321  L 173.731884057971 73.3950617283951  L 161.536742641895 150.491651710448  L 58.746727957607 204.007722847664  L 1.76530677392581 73.3950617283951  Z " fill-rule="nonzero" fill="#0f87df" stroke="none" fill-opacity="0.435294117647059" transform="matrix(1 0 0 1 435 358 )" />
    <path d="M 1.76530677392581 73.3950617283951  L 85.5615143969865 0.535160711372142  L 156.508970184511 6.1097514548321  L 173.731884057971 73.3950617283951  L 161.536742641895 150.491651710448  L 58.746727957607 204.007722847664  L 1.76530677392581 73.3950617283951  Z " stroke-width="2" stroke="#0f87df" fill="none" transform="matrix(1 0 0 1 435 358 )" mask="url(#clip15)" />
  </g>
</svg>