<?xml version="1.0" encoding="utf-8"?>
<svg version="1.1" xmlns:xlink="http://www.w3.org/1999/xlink" width="14px" height="14px" xmlns="http://www.w3.org/2000/svg">
  <g transform="matrix(1 0 0 1 -1269 -544 )">
    <path d="M 1276 544  C 1279.92 544  1283 547.08  1283 551  C 1283 554.92  1279.92 558  1276 558  C 1272.08 558  1269 554.92  1269 551  C 1269 547.08  1272.08 544  1276 544  Z " fill-rule="nonzero" fill="#ffffff" stroke="none" fill-opacity="0" />
    <path d="M 1276 544.5  C 1279.64 544.5  1282.5 547.36  1282.5 551  C 1282.5 554.64  1279.64 557.5  1276 557.5  C 1272.36 557.5  1269.5 554.64  1269.5 551  C 1269.5 547.36  1272.36 544.5  1276 544.5  Z " stroke-width="1" stroke="#d9d9d9" fill="none" />
  </g>
</svg>