<?xml version="1.0" encoding="utf-8"?>
<svg version="1.1" xmlns:xlink="http://www.w3.org/1999/xlink" width="14px" height="14px" xmlns="http://www.w3.org/2000/svg">
  <g transform="matrix(1 0 0 1 -1343 -544 )">
    <path d="M 1350 544  C 1353.92 544  1357 547.08  1357 551  C 1357 554.92  1353.92 558  1350 558  C 1346.08 558  1343 554.92  1343 551  C 1343 547.08  1346.08 544  1350 544  Z " fill-rule="nonzero" fill="#ffffff" stroke="none" fill-opacity="0" />
    <path d="M 1350 544.5  C 1353.64 544.5  1356.5 547.36  1356.5 551  C 1356.5 554.64  1353.64 557.5  1350 557.5  C 1346.36 557.5  1343.5 554.64  1343.5 551  C 1343.5 547.36  1346.36 544.5  1350 544.5  Z " stroke-width="1" stroke="#1890ff" fill="none" />
  </g>
</svg>