<?xml version="1.0" encoding="utf-8"?>
<svg version="1.1" xmlns:xlink="http://www.w3.org/1999/xlink" width="7px" height="9px" xmlns="http://www.w3.org/2000/svg">
  <defs>
    <mask fill="white" id="clip7">
      <path d="M 6.76909722222222 4.1044921875  C 6.92303240740741 4.2158203125  7 4.34765625  7 4.5  C 7 4.65234375  6.92303240740741 4.7841796875  6.76909722222222 4.8955078125  L 1.32465277777778 8.8330078125  C 1.17071759259259 8.9443359375  0.988425925925926 9  0.777777777777778 9  C 0.56712962962963 9  0.384837962962963 8.9443359375  0.230902777777778 8.8330078125  C 0.0769675925925926 8.7216796875  0 8.58984375  0 8.4375  L 0 0.5625  C 0 0.410156249999999  0.0769675925925926 0.278320312499999  0.230902777777778 0.1669921875  C 0.384837962962963 0.0556640624999993  0.56712962962963 0  0.777777777777778 0  C 0.988425925925926 0  1.17071759259259 0.0556640624999993  1.32465277777778 0.1669921875  L 6.76909722222222 4.1044921875  Z " fill-rule="evenodd" />
    </mask>
  </defs>
  <g transform="matrix(1 0 0 1 -70 -406 )">
    <path d="M 6.76909722222222 4.1044921875  C 6.92303240740741 4.2158203125  7 4.34765625  7 4.5  C 7 4.65234375  6.92303240740741 4.7841796875  6.76909722222222 4.8955078125  L 1.32465277777778 8.8330078125  C 1.17071759259259 8.9443359375  0.988425925925926 9  0.777777777777778 9  C 0.56712962962963 9  0.384837962962963 8.9443359375  0.230902777777778 8.8330078125  C 0.0769675925925926 8.7216796875  0 8.58984375  0 8.4375  L 0 0.5625  C 0 0.410156249999999  0.0769675925925926 0.278320312499999  0.230902777777778 0.1669921875  C 0.384837962962963 0.0556640624999993  0.56712962962963 0  0.777777777777778 0  C 0.988425925925926 0  1.17071759259259 0.0556640624999993  1.32465277777778 0.1669921875  L 6.76909722222222 4.1044921875  Z " fill-rule="nonzero" fill="#333333" stroke="none" fill-opacity="0" transform="matrix(1 0 0 1 70 406 )" />
    <path d="M 6.76909722222222 4.1044921875  C 6.92303240740741 4.2158203125  7 4.34765625  7 4.5  C 7 4.65234375  6.92303240740741 4.7841796875  6.76909722222222 4.8955078125  L 1.32465277777778 8.8330078125  C 1.17071759259259 8.9443359375  0.988425925925926 9  0.777777777777778 9  C 0.56712962962963 9  0.384837962962963 8.9443359375  0.230902777777778 8.8330078125  C 0.0769675925925926 8.7216796875  0 8.58984375  0 8.4375  L 0 0.5625  C 0 0.410156249999999  0.0769675925925926 0.278320312499999  0.230902777777778 0.1669921875  C 0.384837962962963 0.0556640624999993  0.56712962962963 0  0.777777777777778 0  C 0.988425925925926 0  1.17071759259259 0.0556640624999993  1.32465277777778 0.1669921875  L 6.76909722222222 4.1044921875  Z " stroke-width="2" stroke="#003686" fill="none" transform="matrix(1 0 0 1 70 406 )" mask="url(#clip7)" />
  </g>
</svg>