<?xml version="1.0" encoding="utf-8"?>
<svg version="1.1" xmlns:xlink="http://www.w3.org/1999/xlink" width="60px" height="60px" xmlns="http://www.w3.org/2000/svg">
  <g transform="matrix(1 0 0 1 -183 -994 )">
    <path d="M 213 994  C 229.8 994  243 1007.2  243 1024  C 243 1040.8  229.8 1054  213 1054  C 196.2 1054  183 1040.8  183 1024  C 183 1007.2  196.2 994  213 994  Z " fill-rule="nonzero" fill="#ffffff" stroke="none" />
    <path d="M 213 994.5  C 229.52 994.5  242.5 1007.48  242.5 1024  C 242.5 1040.52  229.52 1053.5  213 1053.5  C 196.48 1053.5  183.5 1040.52  183.5 1024  C 183.5 1007.48  196.48 994.5  213 994.5  Z " stroke-width="1" stroke="#e4e4e4" fill="none" />
  </g>
</svg>