<?xml version="1.0" encoding="utf-8"?>
<svg version="1.1" xmlns:xlink="http://www.w3.org/1999/xlink" width="12px" height="12px" xmlns="http://www.w3.org/2000/svg">
  <g transform="matrix(1 0 0 1 -45 -266 )">
    <path d="M 51 267  C 53.8 267  56 269.2  56 272  C 56 274.8  53.8 277  51 277  C 48.2 277  46 274.8  46 272  C 46 269.2  48.2 267  51 267  Z " fill-rule="nonzero" fill="#f5f5f9" stroke="none" />
    <path d="M 51 267  C 53.8 267  56 269.2  56 272  C 56 274.8  53.8 277  51 277  C 48.2 277  46 274.8  46 272  C 46 269.2  48.2 267  51 267  Z " stroke-width="2" stroke="#dddddd" fill="none" />
  </g>
</svg>