<?xml version="1.0" encoding="utf-8"?>
<svg version="1.1" xmlns:xlink="http://www.w3.org/1999/xlink" width="30px" height="40px" xmlns="http://www.w3.org/2000/svg">
  <g transform="matrix(1 0 0 1 -25 -70 )">
    <path d="M 40 109.036928468354  C 34.2 99.4073405959099  25.5 93.6295878724437  25.5 84  C 25.5 78.9857142857143  28.4 70.5  40 70.5  C 51.6 70.5  54.5 78.9857142857143  54.5 84  C 54.5 93.6295878724437  45.8 99.4073405959099  40 109.036928468354  Z " fill-rule="nonzero" fill="#ff0000" stroke="none" />
    <path d="M 40 110  C 34 100  25 94  25 84  C 25 78.8  28 70  40 70  C 52 70  55 78.8  55 84  C 55 94  46 100  40 110  Z M 40 108.073856936707  C 45.6 98.8146811918198  54 93.2591757448874  54 84  C 54 79.1714285714286  51.2 71  40 71  C 28.8 71  26 79.1714285714286  26 84  C 26 93.2591757448874  34.4 98.8146811918198  40 108.073856936707  Z " fill-rule="nonzero" fill="#ffffff" stroke="none" />
  </g>
</svg>