<?xml version="1.0" encoding="utf-8"?>
<svg version="1.1" xmlns:xlink="http://www.w3.org/1999/xlink" width="609px" height="32px" xmlns="http://www.w3.org/2000/svg">
  <g transform="matrix(1 0 0 1 -802 -591 )">
    <path d="M 803 595  A 3 3 0 0 1 806 592 L 1407 592  A 3 3 0 0 1 1410 595 L 1410 619  A 3 3 0 0 1 1407 622 L 806 622  A 3 3 0 0 1 803 619 L 803 595  Z " fill-rule="nonzero" fill="#ffffff" stroke="none" />
    <path d="M 802.5 595  A 3.5 3.5 0 0 1 806 591.5 L 1407 591.5  A 3.5 3.5 0 0 1 1410.5 595 L 1410.5 619  A 3.5 3.5 0 0 1 1407 622.5 L 806 622.5  A 3.5 3.5 0 0 1 802.5 619 L 802.5 595  Z " stroke-width="1" stroke-dasharray="9,4" stroke="#d9d9d9" fill="none" stroke-dashoffset="0.5" />
  </g>
</svg>