<?xml version="1.0" encoding="utf-8"?>
<svg version="1.1" xmlns:xlink="http://www.w3.org/1999/xlink" width="45px" height="22px" xmlns="http://www.w3.org/2000/svg">
  <g transform="matrix(1 0 0 1 -349 -180 )">
    <path d="M 44.7395833333333 10.2704811443433  C 44.9131944444445 10.4612050281751  45 10.6805374945817  45 10.9284785435631  C 45 11.1954919809276  44.9131944444445 11.4243606415258  44.7395833333333 11.6150845253576  L 34.7395833333333 21.742522756827  C 34.4618055555556 22.0095361941916  34.1579861111111 22.0667533593411  33.828125 21.9141742522757  C 33.4982638888889 21.742522756827  33.3333333333333 21.4659731252709  33.3333333333333 21.0845253576073  L 33.3333333333333 14.6762028608583  L 0.833333333333333 14.6762028608583  C 0.590277777777778 14.6762028608583  0.390625 14.5903771131339  0.234375 14.4187256176853  C 0.078125 14.2470741222367  0 14.0277416558301  0 13.7607282184655  L 0 8.26788036410923  C 0 8.00086692674469  0.078125 7.7815344603381  0.234375 7.60988296488947  C 0.390625 7.43823146944083  0.590277777777778 7.35240572171652  0.833333333333333 7.35240572171652  L 33.3333333333333 7.35240572171652  L 33.3333333333333 0.944083224967491  C 33.3333333333333 0.543563068920677  33.4982638888889 0.267013437364541  33.828125 0.11443433029909  C 34.1579861111111 -0.0381447767663659  34.4618055555556 0.00953619419158902  34.7395833333333 0.257477243172952  L 44.7395833333333 10.2704811443433  Z " fill-rule="nonzero" fill="#e6e6e6" stroke="none" transform="matrix(1 0 0 1 349 180 )" />
  </g>
</svg>