<?xml version="1.0" encoding="utf-8"?>
<svg version="1.1" xmlns:xlink="http://www.w3.org/1999/xlink" width="609px" height="32px" xmlns="http://www.w3.org/2000/svg">
  <g transform="matrix(1 0 0 1 -802 -598 )">
    <path d="M 803 602  A 3 3 0 0 1 806 599 L 1407 599  A 3 3 0 0 1 1410 602 L 1410 626  A 3 3 0 0 1 1407 629 L 806 629  A 3 3 0 0 1 803 626 L 803 602  Z " fill-rule="nonzero" fill="#ffffff" stroke="none" />
    <path d="M 802.5 602  A 3.5 3.5 0 0 1 806 598.5 L 1407 598.5  A 3.5 3.5 0 0 1 1410.5 602 L 1410.5 626  A 3.5 3.5 0 0 1 1407 629.5 L 806 629.5  A 3.5 3.5 0 0 1 802.5 626 L 802.5 602  Z " stroke-width="1" stroke-dasharray="9,4" stroke="#d9d9d9" fill="none" stroke-dashoffset="0.5" />
  </g>
</svg>