<?xml version="1.0" encoding="utf-8"?>
<svg version="1.1" xmlns:xlink="http://www.w3.org/1999/xlink" width="17px" height="13px" xmlns="http://www.w3.org/2000/svg">
  <g transform="matrix(1 0 0 1 -1305 -581 )">
    <path d="M 16.6300223214286 0.37578125  C 16.8766741071429 0.490885416666666  17 0.690625  17 0.974999999999999  L 17 12.025  C 17 12.309375  16.8766741071429 12.5091145833333  16.6300223214286 12.62421875  C 16.5478050595238 12.6580729166667  16.46875 12.675  16.3928571428571 12.675  C 16.2220982142857 12.675  16.0797991071429 12.6106770833333  15.9659598214286 12.48203125  L 12.1428571428571 8.3890625  L 12.1428571428571 10.075  C 12.1428571428571 10.8807291666667  11.8756510416667 11.5696614583333  11.3412388392857 12.141796875  C 10.8068266369048 12.7139322916667  10.163318452381 13  9.41071428571429 13  L 2.73214285714286 13  C 1.97953869047619 13  1.33603050595238 12.7139322916667  0.801618303571429 12.141796875  C 0.267206101190476 11.5696614583333  0 10.8807291666667  0 10.075  L 0 2.925  C 0 2.11927083333333  0.267206101190476 1.43033854166667  0.801618303571429 0.858203125  C 1.33603050595238 0.286067708333332  1.97953869047619 0  2.73214285714286 0  L 9.41071428571429 0  C 10.163318452381 0  10.8068266369048 0.286067708333332  11.3412388392857 0.858203125  C 11.8756510416667 1.43033854166667  12.1428571428571 2.11927083333333  12.1428571428571 2.925  L 12.1428571428571 4.60078125  L 15.9659598214286 0.517968749999999  C 16.0797991071429 0.389322916666666  16.2220982142857 0.325  16.3928571428571 0.325  C 16.46875 0.325  16.5478050595238 0.341927083333331  16.6300223214286 0.37578125  Z " fill-rule="nonzero" fill="#666666" stroke="none" transform="matrix(1 0 0 1 1305 581 )" />
  </g>
</svg>