<?xml version="1.0" encoding="utf-8"?>
<svg version="1.1" xmlns:xlink="http://www.w3.org/1999/xlink" width="17px" height="13px" xmlns="http://www.w3.org/2000/svg">
  <g transform="matrix(1 0 0 1 -1305 -613 )">
    <path d="M 8.85416666666667 7.52408854166667  L 13.0894097222222 5.9921875  L 13.2222222222222 8.66666666666667  C 13.2418981481481 9.05598958333333  13.0402199074074 9.41710069444444  12.6171875 9.75  C 12.1941550925926 10.0828993055556  11.6161747685185 10.3466796875  10.8832465277778 10.5413411458333  C 10.150318287037 10.7360026041667  9.35590277777778 10.8333333333333  8.5 10.8333333333333  C 7.64409722222222 10.8333333333333  6.84968171296296 10.7360026041667  6.11675347222222 10.5413411458333  C 5.38382523148148 10.3466796875  4.80584490740741 10.0828993055556  4.3828125 9.75  C 3.95978009259259 9.41710069444444  3.75810185185185 9.05598958333333  3.77777777777778 8.66666666666667  L 3.91059027777778 5.9921875  L 8.14583333333333 7.52408854166667  C 8.25405092592593 7.56358506944444  8.37210648148148 7.58333333333333  8.5 7.58333333333333  C 8.62789351851852 7.58333333333333  8.74594907407408 7.56358506944444  8.85416666666667 7.52408854166667  Z M 16.8376736111111 2.98763020833333  C 16.9458912037037 3.03276909722222  17 3.12022569444444  17 3.25  C 17 3.37977430555555  16.9458912037037 3.46723090277778  16.8376736111111 3.51236979166667  L 8.57378472222222 6.49153645833333  C 8.5541087962963 6.49717881944444  8.52951388888889 6.5  8.5 6.5  C 8.47048611111111 6.5  8.4458912037037 6.49717881944444  8.42621527777778 6.49153645833333  L 3.61545138888889 4.748046875  C 3.40393518518519 4.93988715277778  3.22931134259259 5.25444878472222  3.09157986111111 5.69173177083333  C 2.95384837962963 6.12901475694444  2.87022569444444 6.63259548611111  2.84071180555556 7.20247395833333  C 3.15060763888889 7.40559895833333  3.30555555555556 7.71310763888889  3.30555555555556 8.125  C 3.30555555555556 8.51432291666667  3.16290509259259 8.81618923611111  2.87760416666667 9.03059895833333  L 3.30555555555556 12.6953125  C 3.31539351851852 12.7743055555556  3.29571759259259 12.8448350694444  3.24652777777778 12.9069010416667  C 3.20225694444444 12.9689670138889  3.14322916666667 13  3.06944444444444 13  L 1.65277777777778 13  C 1.57899305555556 13  1.51996527777778 12.9689670138889  1.47569444444444 12.9069010416667  C 1.42650462962963 12.8448350694444  1.4068287037037 12.7743055555556  1.41666666666667 12.6953125  L 1.84461805555556 9.03059895833333  C 1.55931712962963 8.81618923611111  1.41666666666667 8.51432291666667  1.41666666666667 8.125  C 1.41666666666667 7.71310763888889  1.57653356481481 7.39995659722222  1.89626736111111 7.185546875  C 1.95037615740741 6.017578125  2.19140625 5.08658854166667  2.61935763888889 4.392578125  L 0.162326388888889 3.51236979166667  C 0.0541087962962963 3.46723090277778  0 3.37977430555555  0 3.25  C 0 3.12022569444444  0.0541087962962963 3.03276909722222  0.162326388888889 2.98763020833333  L 8.42621527777778 0.00846354166666619  C 8.4458912037037 0.00282118055555491  8.47048611111111 0  8.5 0  C 8.52951388888889 0  8.5541087962963 0.00282118055555491  8.57378472222222 0.00846354166666619  L 16.8376736111111 2.98763020833333  Z " fill-rule="nonzero" fill="#666666" stroke="none" transform="matrix(1 0 0 1 1305 613 )" />
  </g>
</svg>