<?xml version="1.0" encoding="utf-8"?>
<svg version="1.1" xmlns:xlink="http://www.w3.org/1999/xlink" width="180px" height="28px" xmlns="http://www.w3.org/2000/svg">
  <g transform="matrix(1 0 0 1 -303 -310 )">
    <path d="M 304 314  A 3 3 0 0 1 307 311 L 479 311  A 3 3 0 0 1 482 314 L 482 334  A 3 3 0 0 1 479 337 L 307 337  A 3 3 0 0 1 304 334 L 304 314  Z " fill-rule="nonzero" fill="#ffffff" stroke="none" />
    <path d="M 303.5 314  A 3.5 3.5 0 0 1 307 310.5 L 479 310.5  A 3.5 3.5 0 0 1 482.5 314 L 482.5 334  A 3.5 3.5 0 0 1 479 337.5 L 307 337.5  A 3.5 3.5 0 0 1 303.5 334 L 303.5 314  Z " stroke-width="1" stroke-dasharray="9,4" stroke="#d9d9d9" fill="none" stroke-dashoffset="0.5" />
  </g>
</svg>