<?xml version="1.0" encoding="utf-8"?>
<svg version="1.1" xmlns:xlink="http://www.w3.org/1999/xlink" width="12px" height="14px" xmlns="http://www.w3.org/2000/svg">
  <g transform="matrix(1 0 0 1 -905 -593 )">
    <path d="M 4.28693181818182 11.5846354166667  C 4.33806818181818 11.5299479166667  4.36363636363636 11.4600694444444  4.36363636363636 11.375  L 4.36363636363636 4.95833333333333  C 4.36363636363636 4.87326388888889  4.33806818181818 4.80338541666667  4.28693181818182 4.74869791666667  C 4.23579545454545 4.69401041666667  4.17045454545455 4.66666666666667  4.09090909090909 4.66666666666667  L 3.54545454545455 4.66666666666667  C 3.46590909090909 4.66666666666667  3.40056818181818 4.69401041666667  3.34943181818182 4.74869791666667  C 3.29829545454545 4.80338541666667  3.27272727272727 4.87326388888889  3.27272727272727 4.95833333333333  L 3.27272727272727 11.375  C 3.27272727272727 11.4600694444444  3.29829545454545 11.5299479166667  3.34943181818182 11.5846354166667  C 3.40056818181818 11.6393229166667  3.46590909090909 11.6666666666667  3.54545454545455 11.6666666666667  L 4.09090909090909 11.6666666666667  C 4.17045454545455 11.6666666666667  4.23579545454545 11.6393229166667  4.28693181818182 11.5846354166667  Z M 6.46875 11.5846354166667  C 6.51988636363636 11.5299479166667  6.54545454545455 11.4600694444444  6.54545454545455 11.375  L 6.54545454545455 4.95833333333333  C 6.54545454545455 4.87326388888889  6.51988636363636 4.80338541666667  6.46875 4.74869791666667  C 6.41761363636364 4.69401041666667  6.35227272727273 4.66666666666667  6.27272727272727 4.66666666666667  L 5.72727272727273 4.66666666666667  C 5.64772727272727 4.66666666666667  5.58238636363636 4.69401041666667  5.53125 4.74869791666667  C 5.48011363636364 4.80338541666667  5.45454545454545 4.87326388888889  5.45454545454545 4.95833333333333  L 5.45454545454545 11.375  C 5.45454545454545 11.4600694444444  5.48011363636364 11.5299479166667  5.53125 11.5846354166667  C 5.58238636363636 11.6393229166667  5.64772727272727 11.6666666666667  5.72727272727273 11.6666666666667  L 6.27272727272727 11.6666666666667  C 6.35227272727273 11.6666666666667  6.41761363636364 11.6393229166667  6.46875 11.5846354166667  Z M 8.65056818181818 11.5846354166667  C 8.70170454545455 11.5299479166667  8.72727272727273 11.4600694444444  8.72727272727273 11.375  L 8.72727272727273 4.95833333333333  C 8.72727272727273 4.87326388888889  8.70170454545455 4.80338541666667  8.65056818181818 4.74869791666667  C 8.59943181818182 4.69401041666667  8.53409090909091 4.66666666666667  8.45454545454546 4.66666666666667  L 7.90909090909091 4.66666666666667  C 7.82954545454546 4.66666666666667  7.76420454545455 4.69401041666667  7.71306818181818 4.74869791666667  C 7.66193181818182 4.80338541666667  7.63636363636364 4.87326388888889  7.63636363636364 4.95833333333333  L 7.63636363636364 11.375  C 7.63636363636364 11.4600694444444  7.66193181818182 11.5299479166667  7.71306818181818 11.5846354166667  C 7.76420454545455 11.6393229166667  7.82954545454546 11.6666666666667  7.90909090909091 11.6666666666667  L 8.45454545454546 11.6666666666667  C 8.53409090909091 11.6666666666667  8.59943181818182 11.6393229166667  8.65056818181818 11.5846354166667  Z M 4.50852272727273 1.26692708333333  L 4.09090909090909 2.33333333333333  L 7.90909090909091 2.33333333333333  L 7.5 1.26692708333333  C 7.46022727272727 1.21223958333333  7.41193181818182 1.17881944444444  7.35511363636364 1.16666666666667  L 4.65340909090909 1.16666666666667  C 4.59659090909091 1.17881944444444  4.54829545454546 1.21223958333333  4.50852272727273 1.26692708333333  Z M 11.9232954545455 2.41536458333333  C 11.9744318181818 2.47005208333333  12 2.53993055555555  12 2.625  L 12 3.20833333333333  C 12 3.29340277777778  11.9744318181818 3.36328125  11.9232954545455 3.41796875  C 11.8721590909091 3.47265625  11.8068181818182 3.5  11.7272727272727 3.5  L 10.9090909090909 3.5  L 10.9090909090909 12.140625  C 10.9090909090909 12.6449652777778  10.7755681818182 13.0809461805556  10.5085227272727 13.4485677083333  C 10.2414772727273 13.8161892361111  9.92045454545455 14  9.54545454545455 14  L 2.45454545454545 14  C 2.07954545454545 14  1.75852272727273 13.822265625  1.49147727272727 13.466796875  C 1.22443181818182 13.111328125  1.09090909090909 12.6814236111111  1.09090909090909 12.1770833333333  L 1.09090909090909 3.5  L 0.272727272727273 3.5  C 0.193181818181818 3.5  0.127840909090909 3.47265625  0.0767045454545455 3.41796875  C 0.0255681818181818 3.36328125  0 3.29340277777778  0 3.20833333333333  L 0 2.625  C 0 2.53993055555555  0.0255681818181818 2.47005208333333  0.0767045454545455 2.41536458333333  C 0.127840909090909 2.36067708333333  0.193181818181818 2.33333333333333  0.272727272727273 2.33333333333333  L 2.90625 2.33333333333333  L 3.50284090909091 0.811197916666667  C 3.58806818181818 0.586371527777777  3.74147727272727 0.394965277777777  3.96306818181818 0.236979166666667  C 4.18465909090909 0.0789930555555547  4.40909090909091 0  4.63636363636364 0  L 7.36363636363636 0  C 7.59090909090909 0  7.81534090909091 0.0789930555555547  8.03693181818182 0.236979166666667  C 8.25852272727273 0.394965277777777  8.41193181818182 0.586371527777777  8.49715909090909 0.811197916666667  L 9.09375 2.33333333333333  L 11.7272727272727 2.33333333333333  C 11.8068181818182 2.33333333333333  11.8721590909091 2.36067708333333  11.9232954545455 2.41536458333333  Z " fill-rule="nonzero" fill="#666666" stroke="none" transform="matrix(1 0 0 1 905 593 )" />
  </g>
</svg>