<?xml version="1.0" encoding="utf-8"?>
<svg version="1.1" xmlns:xlink="http://www.w3.org/1999/xlink" width="30px" height="40px" xmlns="http://www.w3.org/2000/svg">
  <g transform="matrix(1 0 0 1 -286 -47 )">
    <path d="M 301 86.0369284683536  C 295.2 76.4073405959099  286.5 70.6295878724437  286.5 61  C 286.5 55.9857142857143  289.4 47.5  301 47.5  C 312.6 47.5  315.5 55.9857142857143  315.5 61  C 315.5 70.6295878724437  306.8 76.4073405959099  301 86.0369284683536  Z " fill-rule="nonzero" fill="#ff0000" stroke="none" />
    <path d="M 301 87  C 295 77  286 71  286 61  C 286 55.8  289 47  301 47  C 313 47  316 55.8  316 61  C 316 71  307 77  301 87  Z M 301 85.0738569367072  C 306.6 75.8146811918198  315 70.2591757448874  315 61  C 315 56.1714285714286  312.2 48  301 48  C 289.8 48  287 56.1714285714286  287 61  C 287 70.2591757448874  295.4 75.8146811918198  301 85.0738569367072  Z " fill-rule="nonzero" fill="#ffffff" stroke="none" />
  </g>
</svg>