<?xml version="1.0" encoding="utf-8"?>
<svg version="1.1" xmlns:xlink="http://www.w3.org/1999/xlink" width="50px" height="38px" xmlns="http://www.w3.org/2000/svg">
  <g transform="matrix(1 0 0 1 -882 -539 )">
    <path d="M 49.7349330357143 24.6971726190476  C 49.9116443452381 24.8762400793651  50 25.0882936507937  50 25.3333333333333  L 50 30.7619047619048  C 50 31.0069444444445  49.9116443452381 31.218998015873  49.7349330357143 31.3980654761905  C 49.5582217261905 31.5771329365079  49.3489583333333 31.6666666666667  49.1071428571429 31  L 10.7142857142857 31  L 10.7142857142857 37.0952380952381  C 10.7142857142857 37.3402777777778  10.6259300595238 37.5523313492063  10.44921875 37.7313988095238  C 10.2725074404762 37.9104662698413  10.063244047619 38  9.82142857142857 38  C 9.59821428571429 38  9.375 37.905753968254  9.15178571428571 37.7172619047619  L 0.251116071428571 28.6696428571429  C 0.0837053571428571 28.5  0 28.2926587301587  0 28.0476190476191  C 0 27.7837301587302  0.0837053571428571 27.5669642857143  0.251116071428571 27.3973214285714  L 9.1796875 18.3497023809524  C 9.34709821428571 18.1800595238095  9.56101190476191 18.0952380952381  9.82142857142857 18.0952380952381  C 10.063244047619 18.0952380952381  10.2725074404762 18.1847718253968  10.44921875 18.3638392857143  C 10.6259300595238 18.5429067460317  10.7142857142857 18.7549603174603  10.7142857142857 19  L 10.7142857142857 24  L 49.1071428571429 24  C 49.3489583333333 24.4285714285714  49.5582217261905 24.5181051587302  49.7349330357143 24.6971726190476  Z M 49.7488839285714 9.30208333333333  C 49.9162946428571 9.47172619047619  50 9.68849206349206  50 9.95238095238095  C 50 10.2162698412698  49.9162946428571 10.4330357142857  49.7488839285714 10.6026785714286  L 40.8203125 19.6502976190476  C 40.6529017857143 19.8199404761905  40.4389880952381 19.9047619047619  40.1785714285714 19.9047619047619  C 39.936755952381 19.9047619047619  39.7274925595238 19.8152281746032  39.55078125 19.6361607142857  C 39.3740699404762 19.4570932539683  39.2857142857143 19.2450396825397  39.2857142857143 19  L 39.2857142857143 14  L 0.892857142857143 14  C 0.651041666666667 13.5714285714286  0.441778273809524 13.4818948412698  0.265066964285714 13.3028273809524  C 0.0883556547619048 13.1237599206349  0 12.9117063492063  0 12.6666666666667  L 0 7.23809523809524  C 0 6.99305555555555  0.0883556547619048 6.78100198412698  0.265066964285714 6.60193452380952  C 0.441778273809524 6.42286706349206  0.651041666666667 6.33333333333333  0.892857142857143 7  L 39.2857142857143 7  L 39.2857142857143 0.904761904761906  C 39.2857142857143 0.640873015873014  39.3694196428571 0.424107142857143  39.5368303571429 0.254464285714287  C 39.7042410714286 0.0848214285714304  39.9181547619048 0  40.1785714285714 0  C 40.4017857142857 0  40.625 0.0942460317460314  40.8482142857143 0.282738095238094  L 49.7488839285714 9.30208333333333  Z " fill-rule="nonzero" fill="#d2d2d2" stroke="none" transform="matrix(1 0 0 1 882 539 )" />
  </g>
</svg>