<?xml version="1.0" encoding="utf-8"?>
<svg version="1.1" xmlns:xlink="http://www.w3.org/1999/xlink" width="69px" height="81px" xmlns="http://www.w3.org/2000/svg">
  <defs>
    <mask fill="white" id="clip3">
      <path d="M 0.696035242290748 29  L 33.7356828193832 0.211453744493383  L 61.7092511013216 2.41409691629951  L 68.5 29  L 63.6916299559471 59.4625550660794  L 23.1629955947136 80.6079295154186  L 0.696035242290748 29  Z " fill-rule="evenodd" />
    </mask>
  </defs>
  <g transform="matrix(1 0 0 1 -1148 -190 )">
    <path d="M 0.696035242290748 29  L 33.7356828193832 0.211453744493383  L 61.7092511013216 2.41409691629951  L 68.5 29  L 63.6916299559471 59.4625550660794  L 23.1629955947136 80.6079295154186  L 0.696035242290748 29  Z " fill-rule="nonzero" fill="#0f87df" stroke="none" fill-opacity="0.435294117647059" transform="matrix(1 0 0 1 1148 190 )" />
    <path d="M 0.696035242290748 29  L 33.7356828193832 0.211453744493383  L 61.7092511013216 2.41409691629951  L 68.5 29  L 63.6916299559471 59.4625550660794  L 23.1629955947136 80.6079295154186  L 0.696035242290748 29  Z " stroke-width="2" stroke="#0f87df" fill="none" transform="matrix(1 0 0 1 1148 190 )" mask="url(#clip3)" />
  </g>
</svg>