<?xml version="1.0" encoding="utf-8"?>
<svg version="1.1" xmlns:xlink="http://www.w3.org/1999/xlink" width="12px" height="9px" xmlns="http://www.w3.org/2000/svg">
  <g transform="matrix(1 0 0 1 -87 -251 )">
    <path d="M 6.25 5.208984375  L 9.23958333333333 4.1484375  L 9.33333333333333 6  C 9.34722222222222 6.26953125  9.20486111111111 6.51953125  8.90625 6.75  C 8.60763888888889 6.98046875  8.19965277777778 7.1630859375  7.68229166666667 7.2978515625  C 7.16493055555556 7.4326171875  6.60416666666667 7.5  6 7.5  C 5.39583333333333 7.5  4.83506944444445 7.4326171875  4.31770833333333 7.2978515625  C 3.80034722222222 7.1630859375  3.39236111111111 6.98046875  3.09375 6.75  C 2.79513888888889 6.51953125  2.65277777777778 6.26953125  2.66666666666667 6  L 2.76041666666667 4.1484375  L 5.75 5.208984375  C 5.82638888888889 5.236328125  5.90972222222222 5.25  6 5.25  C 6.09027777777778 5.25  6.17361111111111 5.236328125  6.25 5.208984375  Z M 11.8854166666667 2.068359375  C 11.9618055555556 2.099609375  12 2.16015625  12 2.25  C 12 2.33984375  11.9618055555556 2.400390625  11.8854166666667 2.431640625  L 6.05208333333333 4.494140625  C 6.03819444444445 4.498046875  6.02083333333333 4.5  6 4.5  C 5.97916666666667 4.5  5.96180555555556 4.498046875  5.94791666666667 4.494140625  L 2.55208333333333 3.287109375  C 2.40277777777778 3.419921875  2.27951388888889 3.6376953125  2.18229166666667 3.9404296875  C 2.08506944444444 4.2431640625  2.02604166666667 4.591796875  2.00520833333333 4.986328125  C 2.22395833333333 5.126953125  2.33333333333333 5.33984375  2.33333333333333 5.625  C 2.33333333333333 5.89453125  2.23263888888889 6.103515625  2.03125 6.251953125  L 2.33333333333333 8.7890625  C 2.34027777777778 8.84375  2.32638888888889 8.892578125  2.29166666666667 8.935546875  C 2.26041666666667 8.978515625  2.21875 9  2.16666666666667 9  L 1.16666666666667 9  C 1.11458333333333 9  1.07291666666667 8.978515625  1.04166666666667 8.935546875  C 1.00694444444444 8.892578125  0.993055555555556 8.84375  1 8.7890625  L 1.30208333333333 6.251953125  C 1.10069444444444 6.103515625  1 5.89453125  1 5.625  C 1 5.33984375  1.11284722222222 5.123046875  1.33854166666667 4.974609375  C 1.37673611111111 4.166015625  1.546875 3.521484375  1.84895833333333 3.041015625  L 0.114583333333333 2.431640625  C 0.0381944444444444 2.400390625  0 2.33984375  0 2.25  C 0 2.16015625  0.0381944444444444 2.099609375  0.114583333333333 2.068359375  L 5.94791666666667 0.00585937499999967  C 5.96180555555556 0.00195312499999956  5.97916666666667 0  6 0  C 6.02083333333333 0  6.03819444444445 0.00195312499999956  6.05208333333333 0.00585937499999967  L 11.8854166666667 2.068359375  Z " fill-rule="nonzero" fill="#999999" stroke="none" transform="matrix(1 0 0 1 87 251 )" />
  </g>
</svg>