<?xml version="1.0" encoding="utf-8"?>
<svg version="1.1" xmlns:xlink="http://www.w3.org/1999/xlink" width="31px" height="17px" xmlns="http://www.w3.org/2000/svg">
  <defs>
    <mask fill="white" id="clip17">
      <path d="M 30.4248046875 13.7829861111111  C 30.8082682291667 14.1568287037037  31 14.599537037037  31 15.1111111111111  C 31 15.6226851851852  30.8082682291667 16.0653935185185  30.4248046875 16.4392361111111  C 30.0413411458333 16.8130787037037  29.5872395833333 17  29.0625 17  L 1.9375 17  C 1.41276041666667 17  0.958658854166667 16.8130787037037  0.5751953125 16.4392361111111  C 0.191731770833333 16.0653935185185  0 15.6226851851852  0 15.1111111111111  C 0 14.599537037037  0.191731770833333 14.1568287037037  0.5751953125 13.7829861111111  L 14.1376953125 0.56076388888889  C 14.5211588541667 0.186921296296294  14.9752604166667 0  15.5 0  C 16.0247395833333 0  16.4788411458333 0.186921296296294  16.8623046875 0.56076388888889  L 30.4248046875 13.7829861111111  Z " fill-rule="evenodd" />
    </mask>
  </defs>
  <g transform="matrix(1 0 0 1 -501 -468 )">
    <path d="M 30.4248046875 13.7829861111111  C 30.8082682291667 14.1568287037037  31 14.599537037037  31 15.1111111111111  C 31 15.6226851851852  30.8082682291667 16.0653935185185  30.4248046875 16.4392361111111  C 30.0413411458333 16.8130787037037  29.5872395833333 17  29.0625 17  L 1.9375 17  C 1.41276041666667 17  0.958658854166667 16.8130787037037  0.5751953125 16.4392361111111  C 0.191731770833333 16.0653935185185  0 15.6226851851852  0 15.1111111111111  C 0 14.599537037037  0.191731770833333 14.1568287037037  0.5751953125 13.7829861111111  L 14.1376953125 0.56076388888889  C 14.5211588541667 0.186921296296294  14.9752604166667 0  15.5 0  C 16.0247395833333 0  16.4788411458333 0.186921296296294  16.8623046875 0.56076388888889  L 30.4248046875 13.7829861111111  Z " fill-rule="nonzero" fill="#000000" stroke="none" fill-opacity="0" transform="matrix(1 0 0 1 501 468 )" />
    <path d="M 30.4248046875 13.7829861111111  C 30.8082682291667 14.1568287037037  31 14.599537037037  31 15.1111111111111  C 31 15.6226851851852  30.8082682291667 16.0653935185185  30.4248046875 16.4392361111111  C 30.0413411458333 16.8130787037037  29.5872395833333 17  29.0625 17  L 1.9375 17  C 1.41276041666667 17  0.958658854166667 16.8130787037037  0.5751953125 16.4392361111111  C 0.191731770833333 16.0653935185185  0 15.6226851851852  0 15.1111111111111  C 0 14.599537037037  0.191731770833333 14.1568287037037  0.5751953125 13.7829861111111  L 14.1376953125 0.56076388888889  C 14.5211588541667 0.186921296296294  14.9752604166667 0  15.5 0  C 16.0247395833333 0  16.4788411458333 0.186921296296294  16.8623046875 0.56076388888889  L 30.4248046875 13.7829861111111  Z " stroke-width="2" stroke="#dfdfdf" fill="none" transform="matrix(1 0 0 1 501 468 )" mask="url(#clip17)" />
  </g>
</svg>