<?xml version="1.0" encoding="utf-8"?>
<svg version="1.1" xmlns:xlink="http://www.w3.org/1999/xlink" width="10px" height="9px" xmlns="http://www.w3.org/2000/svg">
  <g transform="matrix(1 0 0 1 -342 -698 )">
    <path d="M 9.66346153846154 3.22684310018904  C 9.88782051282051 3.26086956521739  10 3.34782608695652  10 3.48771266540643  C 10 3.57088846880907  9.94791666666667 3.66162570888469  9.84375 3.75992438563327  L 7.66225961538462 5.76748582230624  L 8.17908653846154 8.60302457466919  C 8.18309294871795 8.62948960302458  8.18509615384615 8.66729678638941  8.18509615384615 8.7164461247637  C 8.18509615384615 8.79584120982987  8.1640625 8.86294896030246  8.12199519230769 8.91776937618147  C 8.07992788461539 8.97258979206049  8.01883012820513 9  7.93870192307692 9  C 7.86258012820513 9  7.78245192307692 8.9773156899811  7.69831730769231 8.93194706994329  L 5 7.59357277882798  L 2.30168269230769 8.93194706994329  C 2.21354166666667 8.9773156899811  2.13341346153846 9  2.06129807692308 9  C 1.97716346153846 9  1.9140625 8.97258979206049  1.87199519230769 8.91776937618147  C 1.82992788461538 8.86294896030246  1.80889423076923 8.79584120982987  1.80889423076923 8.7164461247637  C 1.80889423076923 8.6937618147448  1.81290064102564 8.65595463137996  1.82091346153846 8.60302457466919  L 2.33774038461538 5.76748582230624  L 0.150240384615385 3.75992438563327  C 0.0500801282051282 3.6578449905482  0 3.56710775047259  0 3.48771266540643  C 0 3.34782608695652  0.112179487179487 3.26086956521739  0.336538461538462 3.22684310018904  L 3.35336538461538 2.81285444234404  L 4.70552884615385 0.232514177693761  C 4.78165064102564 0.0775047258979201  4.87980769230769 0  5 0  C 5.12019230769231 0  5.21834935897436 0.0775047258979201  5.29447115384615 0.232514177693761  L 6.64663461538462 2.81285444234404  L 9.66346153846154 3.22684310018904  Z " fill-rule="nonzero" fill="#ffd100" stroke="none" transform="matrix(1 0 0 1 342 698 )" />
  </g>
</svg>