<?xml version="1.0" encoding="utf-8"?>
<svg version="1.1" xmlns:xlink="http://www.w3.org/1999/xlink" width="7px" height="10px" xmlns="http://www.w3.org/2000/svg">
  <g transform="matrix(1 0 0 1 -248 -796 )">
    <path d="M 4.7373046875 4.51171875  C 5.0791015625 4.18619791666667  5.25 3.79340277777778  5.25 3.33333333333333  C 5.25 2.87326388888889  5.0791015625 2.48046875  4.7373046875 2.15494791666667  C 4.3955078125 1.82942708333333  3.98307291666667 1.66666666666667  3.5 1.66666666666667  C 3.01692708333333 1.66666666666667  2.6044921875 1.82942708333333  2.2626953125 2.15494791666667  C 1.9208984375 2.48046875  1.75 2.87326388888889  1.75 3.33333333333333  C 1.75 3.79340277777778  1.9208984375 4.18619791666667  2.2626953125 4.51171875  C 2.6044921875 4.83723958333333  3.01692708333333 5  3.5 5  C 3.98307291666667 5  4.3955078125 4.83723958333333  4.7373046875 4.51171875  Z M 5.974609375 0.9765625  C 6.658203125 1.62760416666667  7 2.41319444444444  7 3.33333333333333  C 7 3.80642361111111  6.9248046875 4.19487847222222  6.7744140625 4.49869791666667  L 4.2861328125 9.53776041666667  C 4.21321614583333 9.68098958333333  4.10498046875 9.79383680555556  3.96142578125 9.87630208333333  C 3.81787109375 9.95876736111111  3.6640625 10  3.5 10  C 3.3359375 10  3.18212890625 9.95876736111111  3.03857421875 9.87630208333333  C 2.89501953125 9.79383680555556  2.7890625 9.68098958333333  2.720703125 9.53776041666667  L 0.2255859375 4.49869791666667  C 0.0751953125 4.19487847222222  0 3.80642361111111  0 3.33333333333333  C 0 2.41319444444444  0.341796875 1.62760416666667  1.025390625 0.9765625  C 1.708984375 0.325520833333334  2.53385416666667 0  3.5 0  C 4.46614583333333 0  5.291015625 0.325520833333334  5.974609375 0.9765625  Z " fill-rule="nonzero" fill="#999999" stroke="none" transform="matrix(1 0 0 1 248 796 )" />
  </g>
</svg>