<?xml version="1.0" encoding="utf-8"?>
<svg version="1.1" xmlns:xlink="http://www.w3.org/1999/xlink" width="11px" height="11px" xmlns="http://www.w3.org/2000/svg">
  <g transform="matrix(1 0 0 1 -901 -420 )">
    <path d="M 8.09244791666667 7.44791666666667  C 8.18315972222222 7.35720486111111  8.228515625 7.24739583333333  8.228515625 7.11848958333333  C 8.228515625 6.99435763888889  8.18315972222222 6.88693576388889  8.09244791666667 6.79622395833333  L 6.79622395833333 5.5  L 8.09244791666667 4.20377604166667  C 8.18315972222222 4.11306423611111  8.228515625 4.00564236111111  8.228515625 3.88151041666667  C 8.228515625 3.75260416666667  8.18315972222222 3.64279513888889  8.09244791666667 3.55208333333333  L 7.44791666666667 2.90755208333333  C 7.35720486111111 2.81684027777778  7.24739583333333 2.771484375  7.11848958333333 2.771484375  C 6.99435763888889 2.771484375  6.88693576388889 2.81684027777778  6.79622395833333 2.90755208333333  L 5.5 4.20377604166667  L 4.20377604166667 2.90755208333333  C 4.11306423611111 2.81684027777778  4.00564236111111 2.771484375  3.88151041666667 2.771484375  C 3.75260416666667 2.771484375  3.64279513888889 2.81684027777778  3.55208333333333 2.90755208333333  L 2.90755208333333 3.55208333333333  C 2.81684027777778 3.64279513888889  2.771484375 3.75260416666667  2.771484375 3.88151041666667  C 2.771484375 4.00564236111111  2.81684027777778 4.11306423611111  2.90755208333333 4.20377604166667  L 4.20377604166667 5.5  L 2.90755208333333 6.79622395833333  C 2.81684027777778 6.88693576388889  2.771484375 6.99435763888889  2.771484375 7.11848958333333  C 2.771484375 7.24739583333333  2.81684027777778 7.35720486111111  2.90755208333333 7.44791666666667  L 3.55208333333333 8.09244791666667  C 3.64279513888889 8.18315972222222  3.75260416666667 8.228515625  3.88151041666667 8.228515625  C 4.00564236111111 8.228515625  4.11306423611111 8.18315972222222  4.20377604166667 8.09244791666667  L 5.5 6.79622395833333  L 6.79622395833333 8.09244791666667  C 6.88693576388889 8.18315972222222  6.99435763888889 8.228515625  7.11848958333333 8.228515625  C 7.24739583333333 8.228515625  7.35720486111111 8.18315972222222  7.44791666666667 8.09244791666667  L 8.09244791666667 7.44791666666667  Z M 10.2623697916667 2.7392578125  C 10.7541232638889 3.58192274305555  11 4.50217013888889  11 5.5  C 11 6.49782986111111  10.7541232638889 7.41807725694444  10.2623697916667 8.2607421875  C 9.77061631944445 9.10340711805556  9.10340711805556 9.77061631944444  8.2607421875 10.2623697916667  C 7.41807725694445 10.7541232638889  6.49782986111111 11  5.5 11  C 4.50217013888889 11  3.58192274305556 10.7541232638889  2.7392578125 10.2623697916667  C 1.89659288194444 9.77061631944444  1.22938368055556 9.10340711805556  0.737630208333333 8.2607421875  C 0.245876736111111 7.41807725694444  0 6.49782986111111  0 5.5  C 0 4.50217013888889  0.245876736111111 3.58192274305555  0.737630208333333 2.7392578125  C 1.22938368055556 1.89659288194444  1.89659288194444 1.22938368055555  2.7392578125 0.737630208333333  C 3.58192274305556 0.24587673611111  4.50217013888889 0  5.5 0  C 6.49782986111111 0  7.41807725694445 0.24587673611111  8.2607421875 0.737630208333333  C 9.10340711805556 1.22938368055555  9.77061631944445 1.89659288194444  10.2623697916667 2.7392578125  Z " fill-rule="nonzero" fill="#666666" stroke="none" transform="matrix(1 0 0 1 901 420 )" />
  </g>
</svg>