<?xml version="1.0" encoding="utf-8"?>
<svg version="1.1" xmlns:xlink="http://www.w3.org/1999/xlink" width="14px" height="14px" xmlns="http://www.w3.org/2000/svg">
  <g transform="matrix(1 0 0 1 -566 -181 )">
    <path d="M 573 181  C 576.92 181  580 184.08  580 188  C 580 191.92  576.92 195  573 195  C 569.08 195  566 191.92  566 188  C 566 184.08  569.08 181  573 181  Z " fill-rule="nonzero" fill="#ffffff" stroke="none" fill-opacity="0" />
    <path d="M 573 181.5  C 576.64 181.5  579.5 184.36  579.5 188  C 579.5 191.64  576.64 194.5  573 194.5  C 569.36 194.5  566.5 191.64  566.5 188  C 566.5 184.36  569.36 181.5  573 181.5  Z " stroke-width="1" stroke="#d9d9d9" fill="none" />
  </g>
</svg>