<?xml version="1.0" encoding="utf-8"?>
<svg version="1.1" xmlns:xlink="http://www.w3.org/1999/xlink" width="14px" height="14px" xmlns="http://www.w3.org/2000/svg">
  <g transform="matrix(1 0 0 1 -477 -181 )">
    <path d="M 484 181  C 487.92 181  491 184.08  491 188  C 491 191.92  487.92 195  484 195  C 480.08 195  477 191.92  477 188  C 477 184.08  480.08 181  484 181  Z " fill-rule="nonzero" fill="#ffffff" stroke="none" fill-opacity="0" />
    <path d="M 484 181.5  C 487.64 181.5  490.5 184.36  490.5 188  C 490.5 191.64  487.64 194.5  484 194.5  C 480.36 194.5  477.5 191.64  477.5 188  C 477.5 184.36  480.36 181.5  484 181.5  Z " stroke-width="1" stroke="#1890ff" fill="none" />
  </g>
</svg>